<svg width="12" height="12" viewBox="0 0 12 12" fill="none" xmlns="http://www.w3.org/2000/svg">
<g id="arrow_forward_ios">
<mask id="mask0_931_1694" style="mask-type:alpha" maskUnits="userSpaceOnUse" x="0" y="0" width="12" height="12">
<rect id="Bounding box" width="12" height="12" fill="#D9D9D9"/>
</mask>
<g mask="url(#mask0_931_1694)">
<path id="arrow_forward_ios_2" d="M7.41538 6L3.64901 2.23363C3.54967 2.13429 3.5013 2.01604 3.50388 1.87887C3.50647 1.74171 3.55742 1.62342 3.65676 1.524C3.75609 1.42467 3.87434 1.375 4.01151 1.375C4.14867 1.375 4.26697 1.42467 4.36638 1.524L8.19426 5.35963C8.28459 5.45004 8.35155 5.55133 8.39513 5.6635C8.4388 5.77567 8.46063 5.88783 8.46063 6C8.46063 6.11217 8.4388 6.22433 8.39513 6.3365C8.35155 6.44867 8.28459 6.54996 8.19426 6.64038L4.35863 10.476C4.2593 10.5753 4.14234 10.6237 4.00776 10.6211C3.87309 10.6185 3.75609 10.5676 3.65676 10.4683C3.55742 10.3689 3.50776 10.2507 3.50776 10.1135C3.50776 9.97633 3.55742 9.85804 3.65676 9.75863L7.41538 6Z" fill="#1C1B1F" fill-opacity="0.38"/>
</g>
</g>
</svg>
