<svg width="61" height="60" viewBox="0 0 61 60" fill="none" xmlns="http://www.w3.org/2000/svg">
<g id="article">
<mask id="mask0_787_10767" style="mask-type:alpha" maskUnits="userSpaceOnUse" x="0" y="0" width="61" height="60">
<rect id="Bounding box" x="0.5" width="60" height="60" fill="#D9D9D9"/>
</mask>
<g mask="url(#mask0_787_10767)">
<path id="article_2" d="M13 52.5C11.625 52.5 10.4479 52.0104 9.46875 51.0312C8.48958 50.0521 8 48.875 8 47.5V12.5C8 11.125 8.48958 9.94792 9.46875 8.96875C10.4479 7.98958 11.625 7.5 13 7.5H48C49.375 7.5 50.5521 7.98958 51.5312 8.96875C52.5104 9.94792 53 11.125 53 12.5V47.5C53 48.875 52.5104 50.0521 51.5312 51.0312C50.5521 52.0104 49.375 52.5 48 52.5H13ZM18 42.5H35.5V37.5H18V42.5ZM18 32.5H43V27.5H18V32.5ZM18 22.5H43V17.5H18V22.5Z" fill="#ABCCFC"/>
</g>
</g>
</svg>
