<svg width="66" height="66" viewBox="0 0 66 66" fill="none" xmlns="http://www.w3.org/2000/svg">
<g clip-path="url(#clip0_836_9007)">
<path d="M0 61.4747C0 63.9637 1.97314 66 4.54063 66H8.59268C11.1258 66 13.0989 64.0325 13.0989 61.4747V57.5676H69.9037V61.4747C69.9037 64.0325 71.8742 66 74.4075 66H78.4621C81.0295 66 83 64.0325 83 61.4747V40.2693C83 33.5933 81.2897 30.5887 78.6151 27.073L75.327 22.7788L71.0653 10.855C68.9569 4.90971 65.6082 2.43365 60.711 1.87788C58.164 1.54855 49.5829 1.36157 41.5172 1.36157C33.4198 1.36157 24.873 1.54855 22.2918 1.87788C17.3917 2.43365 14.0775 4.90971 11.935 10.855L7.67325 22.7788L4.38752 27.073C1.71054 30.5887 0 33.5933 0 40.2693V61.4747ZM15.23 20.4595C13.8649 20.4595 13.2731 19.3059 13.7935 17.8547L16.0521 11.4385C17.4187 7.5219 19.4063 5.75023 23.07 5.31802C26.0717 4.94921 31.3205 4.82825 41.5172 4.82825C51.6822 4.82825 56.9286 4.94921 59.9274 5.31802C63.5938 5.75023 65.5787 7.5219 66.9455 11.4385L69.2065 17.8547C69.7269 19.3059 69.1326 20.4595 67.77 20.4595H15.23ZM11.2904 43.9207C9.54763 43.9207 8.33045 42.7069 8.33045 41.006V34.8413C8.33045 33.1747 9.54763 31.9293 11.2904 31.9293C12.9961 31.9293 14.2133 33.1721 14.2133 34.8413V41.006C14.2133 42.7096 12.9961 43.9207 11.2904 43.9207ZM32.6746 42.5963C31.3439 42.5963 30.6049 41.8278 30.6049 40.4192V35.3569C30.6049 33.9879 31.3439 33.2193 32.6746 33.2193H49.8707C51.1694 33.2193 51.9772 33.9879 51.9772 35.3569V40.4192C51.9772 41.8278 51.1694 42.5963 49.8707 42.5963H32.6746ZM71.7011 43.9207C70.067 43.9207 68.8126 42.6726 68.8126 41.006V34.8413C68.8126 33.209 70.067 31.9293 71.7011 31.9293C73.444 31.9293 74.6612 33.1721 74.6612 34.8413V41.006C74.6612 42.7096 73.444 43.9207 71.7011 43.9207Z" fill="#CDE0FF"/>
</g>
<defs>
<clipPath id="clip0_836_9007">
<rect width="83" height="66" fill="white"/>
</clipPath>
</defs>
</svg>
