<svg width="60" height="60" viewBox="0 0 60 60" fill="none" xmlns="http://www.w3.org/2000/svg">
<mask id="mask0_787_7742" style="mask-type:alpha" maskUnits="userSpaceOnUse" x="0" y="0" width="60" height="60">
<rect width="60" height="60" fill="#D9D9D9"/>
</mask>
<g mask="url(#mask0_787_7742)">
<path d="M32.5625 4.00003L52.625 16C53.375 16.4584 53.9583 17.0834 54.375 17.875C54.7917 18.6667 55 19.5 55 20.375V47.5C55 48.875 54.5104 50.0521 53.5312 51.0313C52.5521 52.0105 51.375 52.5 50 52.5H10C8.625 52.5 7.44792 52.0105 6.46875 51.0313C5.48958 50.0521 5 48.875 5 47.5V20.375C5 19.5 5.20833 18.6667 5.625 17.875C6.04167 17.0834 6.625 16.4584 7.375 16L27.4375 4.00003C28.2292 3.5417 29.0833 3.31253 30 3.31253C30.9167 3.31253 31.7708 3.5417 32.5625 4.00003ZM30 31.625L49.5 20L30 8.37503L10.5 20L30 31.625Z" fill="#1677FF" fill-opacity="0.3"/>
</g>
</svg>
