<svg width="29" height="24" viewBox="0 0 29 24" fill="none" xmlns="http://www.w3.org/2000/svg">
<g clip-path="url(#clip0_836_9089)">
<path d="M0 21.9229C0 22.7903 0.689409 23.4999 1.58649 23.4999H3.00226C3.88732 23.4999 4.57672 22.8142 4.57672 21.9229V20.5613H24.4242V21.9229C24.4242 22.8142 25.1127 23.4999 25.9978 23.4999H27.4145C28.3115 23.4999 29 22.8142 29 21.9229V14.5331C29 12.2066 28.4024 11.1596 27.4679 9.93442L26.3191 8.43795L24.83 4.28269C24.0934 2.21084 22.9234 1.34797 21.2123 1.15429C20.3224 1.03952 17.3242 0.974365 14.506 0.974365C11.6768 0.974365 8.69057 1.03952 7.78872 1.15429C6.07663 1.34797 4.91865 2.21084 4.17006 4.28269L2.68101 8.43795L1.53299 9.93442C0.597657 11.1596 0 12.2066 0 14.5331V21.9229ZM5.32131 7.62971C4.84435 7.62971 4.63759 7.2277 4.81942 6.72198L5.60858 4.48602C6.08606 3.12115 6.7805 2.50375 8.06059 2.35313C9.10937 2.2246 10.9433 2.18245 14.506 2.18245C18.0576 2.18245 19.8907 2.2246 20.9385 2.35313C22.2195 2.50375 22.913 3.12115 23.3906 4.48602L24.1806 6.72198C24.3624 7.2277 24.1548 7.62971 23.6787 7.62971H5.32131ZM3.94483 15.8056C3.33592 15.8056 2.91064 15.3826 2.91064 14.7899V12.6415C2.91064 12.0608 3.33592 11.6268 3.94483 11.6268C4.54081 11.6268 4.96609 12.0599 4.96609 12.6415V14.7899C4.96609 15.3835 4.54081 15.8056 3.94483 15.8056ZM11.4164 15.344C10.9515 15.344 10.6933 15.0762 10.6933 14.5854V12.8212C10.6933 12.3442 10.9515 12.0763 11.4164 12.0763H17.4247C17.8785 12.0763 18.1607 12.3442 18.1607 12.8212V14.5854C18.1607 15.0762 17.8785 15.344 17.4247 15.344H11.4164ZM25.0522 15.8056C24.4812 15.8056 24.043 15.3706 24.043 14.7899V12.6415C24.043 12.0727 24.4812 11.6268 25.0522 11.6268C25.6612 11.6268 26.0865 12.0599 26.0865 12.6415V14.7899C26.0865 15.3835 25.6612 15.8056 25.0522 15.8056Z" fill="#1677FF"/>
</g>
<defs>
<clipPath id="clip0_836_9089">
<rect width="29" height="23" fill="white" transform="translate(0 0.5)"/>
</clipPath>
</defs>
</svg>
