<svg width="24" height="24" viewBox="0 0 24 24" fill="none" xmlns="http://www.w3.org/2000/svg">
<mask id="mask0_894_175" style="mask-type:alpha" maskUnits="userSpaceOnUse" x="0" y="0" width="24" height="24">
<rect width="24" height="24" fill="#D9D9D9"/>
</mask>
<g mask="url(#mask0_894_175)">
<path d="M5 22C4.45 22 3.97917 21.8042 3.5875 21.4125C3.19583 21.0208 3 20.55 3 20V6C3 5.45 3.19583 4.97917 3.5875 4.5875C3.97917 4.19583 4.45 4 5 4H6V3C6 2.71667 6.09583 2.47917 6.2875 2.2875C6.47917 2.09583 6.71667 2 7 2C7.28333 2 7.52083 2.09583 7.7125 2.2875C7.90417 2.47917 8 2.71667 8 3V4H16V3C16 2.71667 16.0958 2.47917 16.2875 2.2875C16.4792 2.09583 16.7167 2 17 2C17.2833 2 17.5208 2.09583 17.7125 2.2875C17.9042 2.47917 18 2.71667 18 3V4H19C19.55 4 20.0208 4.19583 20.4125 4.5875C20.8042 4.97917 21 5.45 21 6V20C21 20.55 20.8042 21.0208 20.4125 21.4125C20.0208 21.8042 19.55 22 19 22H5ZM5 20H19V10H5V20Z" fill="#FFC327"/>
<mask id="mask1_894_175" style="mask-type:alpha" maskUnits="userSpaceOnUse" x="7" y="10" width="10" height="10">
<rect x="7" y="10" width="10" height="10" fill="#D9D9D9"/>
</mask>
<g mask="url(#mask1_894_175)">
<path d="M11.3437 18.4479V17.5625H9.91666C9.73611 17.5625 9.58159 17.4983 9.45312 17.3698C9.32465 17.2413 9.26041 17.0868 9.26041 16.9063C9.26041 16.7257 9.32465 16.5712 9.45312 16.4427C9.58159 16.3142 9.73611 16.25 9.91666 16.25H11.3437V15.6563H9.91666C9.73611 15.6563 9.58159 15.592 9.45312 15.4636C9.32465 15.3351 9.26041 15.1806 9.26041 15C9.26041 14.8195 9.32465 14.6649 9.45312 14.5365C9.58159 14.408 9.73611 14.3438 9.91666 14.3438H10.7604L9.21875 11.9063C9.07986 11.684 9.07118 11.4601 9.1927 11.2344C9.31423 11.0087 9.50694 10.8958 9.77083 10.8958C9.88889 10.8958 9.99652 10.9236 10.0937 10.9792C10.191 11.0347 10.2708 11.1111 10.3333 11.2083L12 13.8438L13.6667 11.1979C13.7292 11.1007 13.809 11.0261 13.9062 10.974C14.0035 10.9219 14.1111 10.8958 14.2292 10.8958C14.4931 10.8958 14.6858 11.0087 14.8073 11.2344C14.9288 11.4601 14.9201 11.684 14.7812 11.9063L13.2396 14.3438H14.0833C14.2639 14.3438 14.4184 14.408 14.5469 14.5365C14.6753 14.6649 14.7396 14.8195 14.7396 15C14.7396 15.1806 14.6753 15.3351 14.5469 15.4636C14.4184 15.592 14.2639 15.6563 14.0833 15.6563H12.6562V16.25H14.0833C14.2639 16.25 14.4184 16.3142 14.5469 16.4427C14.6753 16.5712 14.7396 16.7257 14.7396 16.9063C14.7396 17.0868 14.6753 17.2413 14.5469 17.3698C14.4184 17.4983 14.2639 17.5625 14.0833 17.5625H12.6562V18.4479C12.6562 18.6285 12.592 18.783 12.4635 18.9115C12.3351 19.0399 12.1806 19.1042 12 19.1042C11.8194 19.1042 11.6649 19.0399 11.5365 18.9115C11.408 18.783 11.3437 18.6285 11.3437 18.4479Z" fill="#FFC327"/>
</g>
</g>
</svg>
