<svg width="24" height="25" viewBox="0 0 24 25" fill="none" xmlns="http://www.w3.org/2000/svg">
<mask id="mask0_757_13117" style="mask-type:alpha" maskUnits="userSpaceOnUse" x="0" y="0" width="24" height="25">
<rect y="0.372009" width="24" height="24" fill="#D9D9D9"/>
</mask>
<g mask="url(#mask0_757_13117)">
<path d="M5 21.372C4.45 21.372 3.97917 21.1762 3.5875 20.7845C3.19583 20.3928 3 19.922 3 19.372V5.37201C3 4.82201 3.19583 4.35118 3.5875 3.95951C3.97917 3.56784 4.45 3.37201 5 3.37201H9.2C9.41667 2.77201 9.77917 2.28868 10.2875 1.92201C10.7958 1.55534 11.3667 1.37201 12 1.37201C12.6333 1.37201 13.2042 1.55534 13.7125 1.92201C14.2208 2.28868 14.5833 2.77201 14.8 3.37201H19C19.55 3.37201 20.0208 3.56784 20.4125 3.95951C20.8042 4.35118 21 4.82201 21 5.37201V19.372C21 19.922 20.8042 20.3928 20.4125 20.7845C20.0208 21.1762 19.55 21.372 19 21.372H5ZM8 17.372H13C13.2833 17.372 13.5208 17.2762 13.7125 17.0845C13.9042 16.8928 14 16.6553 14 16.372C14 16.0887 13.9042 15.8512 13.7125 15.6595C13.5208 15.4678 13.2833 15.372 13 15.372H8C7.71667 15.372 7.47917 15.4678 7.2875 15.6595C7.09583 15.8512 7 16.0887 7 16.372C7 16.6553 7.09583 16.8928 7.2875 17.0845C7.47917 17.2762 7.71667 17.372 8 17.372ZM8 13.372H16C16.2833 13.372 16.5208 13.2762 16.7125 13.0845C16.9042 12.8928 17 12.6553 17 12.372C17 12.0887 16.9042 11.8512 16.7125 11.6595C16.5208 11.4678 16.2833 11.372 16 11.372H8C7.71667 11.372 7.47917 11.4678 7.2875 11.6595C7.09583 11.8512 7 12.0887 7 12.372C7 12.6553 7.09583 12.8928 7.2875 13.0845C7.47917 13.2762 7.71667 13.372 8 13.372ZM8 9.37201H16C16.2833 9.37201 16.5208 9.27618 16.7125 9.08451C16.9042 8.89284 17 8.65534 17 8.37201C17 8.08868 16.9042 7.85118 16.7125 7.65951C16.5208 7.46784 16.2833 7.37201 16 7.37201H8C7.71667 7.37201 7.47917 7.46784 7.2875 7.65951C7.09583 7.85118 7 8.08868 7 8.37201C7 8.65534 7.09583 8.89284 7.2875 9.08451C7.47917 9.27618 7.71667 9.37201 8 9.37201ZM12 4.62201C12.2167 4.62201 12.3958 4.55118 12.5375 4.40951C12.6792 4.26784 12.75 4.08868 12.75 3.87201C12.75 3.65534 12.6792 3.47618 12.5375 3.33451C12.3958 3.19284 12.2167 3.12201 12 3.12201C11.7833 3.12201 11.6042 3.19284 11.4625 3.33451C11.3208 3.47618 11.25 3.65534 11.25 3.87201C11.25 4.08868 11.3208 4.26784 11.4625 4.40951C11.6042 4.55118 11.7833 4.62201 12 4.62201Z" fill="#8785FF"/>
</g>
</svg>
