<svg width="42" height="42" viewBox="0 0 42 42" fill="none" xmlns="http://www.w3.org/2000/svg">
<g clip-path="url(#clip0_884_1792)">
<circle cx="21" cy="21" r="21" fill="#8A6DFF"/>
<path d="M10.5 18.7466C10.5 18.3757 10.6376 18.0619 10.9129 17.8051C11.1881 17.5483 11.5191 17.4199 11.906 17.4199H13.3119V23.4328H11.906C11.5191 23.4328 11.1881 23.3044 10.9129 23.0477C10.6376 22.7909 10.5 22.477 10.5 22.1061V18.7466ZM26.1217 13.2258C26.7614 12.641 27.3417 12.32 27.8624 12.2629C28.3831 12.2059 28.8443 12.3378 29.246 12.6588C29.6477 12.9798 29.9899 13.4505 30.2726 14.0711C30.5553 14.6916 30.7859 15.3835 30.9644 16.1467C31.1429 16.9099 31.2768 17.7088 31.3661 18.5433C31.4554 19.3779 31.5 20.1732 31.5 20.9292C31.5 21.6853 31.4442 22.4414 31.3326 23.1975C31.221 23.9535 31.0574 24.6632 30.8417 25.3266C30.6259 25.9899 30.373 26.5713 30.0829 27.0705C29.7928 27.5698 29.4692 27.9407 29.1121 28.1833C28.755 28.4258 28.3719 28.5114 27.9628 28.44C27.5537 28.3687 27.1259 28.0905 26.6796 27.6055C26.2481 27.1205 25.6642 26.7175 24.9277 26.3965C24.1913 26.0755 23.3879 25.8045 22.5175 25.5834C21.6472 25.3623 20.7657 25.1839 19.873 25.0484C18.9803 24.9129 18.1621 24.7916 17.4182 24.6846C16.6743 24.5776 16.0531 24.4742 15.5547 24.3744C15.0563 24.2745 14.7774 24.1532 14.7179 24.0106V17.3129C14.7774 17.1132 15.0117 16.9491 15.4208 16.8208C15.83 16.6924 16.3507 16.5711 16.983 16.457C17.6153 16.3429 18.3294 16.218 19.1254 16.0825C19.9214 15.947 20.7322 15.7615 21.5579 15.5262C22.3836 15.2908 23.1908 14.9912 23.9793 14.6274C24.7678 14.2637 25.4819 13.7965 26.1217 13.2258ZM18.0877 26.343C18.1621 26.5142 18.2513 26.6996 18.3555 26.8994C18.4447 27.0848 18.5638 27.2988 18.7125 27.5413C18.8613 27.7838 19.0399 28.0477 19.2481 28.333C19.5011 28.6754 19.7577 29.0356 20.0181 29.4137C20.2784 29.7917 20.4756 30.1341 20.6095 30.4408C20.7434 30.7475 20.7843 31.0007 20.7322 31.2004C20.6801 31.4001 20.4681 31.5 20.0962 31.5H18.8241C18.5266 31.5 18.2513 31.4465 17.9984 31.3395C17.7455 31.2325 17.5037 31.0685 17.2731 30.8474C17.0425 30.6262 16.8045 30.3445 16.559 30.0021C16.3135 29.6597 16.0494 29.2532 15.7667 28.7824C15.4245 28.2403 15.1865 27.766 15.0526 27.3594C14.9187 26.9529 14.8294 26.6141 14.7848 26.343C14.7253 26.0292 14.7253 25.7581 14.7848 25.5299C14.9038 25.5441 15.0452 25.5727 15.2088 25.6155C15.3427 25.644 15.5064 25.6797 15.6998 25.7225C15.8932 25.7653 16.1164 25.808 16.3693 25.8508C16.6222 25.9079 16.8491 25.9614 17.0499 26.0113C17.2508 26.0613 17.433 26.1148 17.5967 26.1718C17.7752 26.2289 17.9389 26.2859 18.0877 26.343Z" fill="white"/>
</g>
<defs>
<clipPath id="clip0_884_1792">
<rect width="42" height="42" fill="white"/>
</clipPath>
</defs>
</svg>
