<?xml version="1.0" standalone="no"?><!DOCTYPE svg PUBLIC "-//W3C//DTD SVG 1.1//EN" "http://www.w3.org/Graphics/SVG/1.1/DTD/svg11.dtd"><svg t="1723201863390" class="icon" viewBox="0 0 1024 1024" version="1.1" xmlns="http://www.w3.org/2000/svg" p-id="22587" xmlns:xlink="http://www.w3.org/1999/xlink" width="48" height="48"><path d="M670.63188 276.326501c0-153.514723-122.811778-276.326501-276.326501-276.326501H0.284258v1023.431484h143.280408v-465.661325h250.740713c153.514723 0 276.326501-122.811778 276.326501-281.443658zM368.719592 414.489751H143.564666V143.280408h230.272084c66.523046 5.117157 127.928935 66.523046 127.928935 133.046093S440.359796 409.372594 368.719592 414.489751z m644.761835 358.201019c-5.117157-10.234315-15.351472-20.46863-15.351472-20.468629l-51.171574-138.163251c-10.234315-25.585787-40.937259-40.937259-56.288732-40.937259h-266.092186c-15.351472 0-46.054417 15.351472-56.288731 40.937259l-51.171575 138.163251s-10.234315 10.234315-15.351472 20.468629c-5.117157 10.234315-10.234315 15.351472-10.234315 76.757362s10.234315 81.874519 25.585787 86.991676l10.234315 5.117157v56.288732c0 20.46863 5.117157 25.585787 20.46863 25.585787h35.820102c15.351472 0 25.585787 0 25.585787-15.351472v-56.288732h281.443658v56.288732c0 20.46863 10.234315 15.351472 25.585787 15.351472h35.820102c15.351472 0 20.46863-5.117157 20.46863-25.585787v-56.288732l10.234315-5.117157c15.351472-5.117157 25.585787-30.702945 25.585787-86.991676 15.351472-61.405889 10.234315-66.523046 5.117157-76.757362z m-424.724066-35.820102c0-10.234315 15.351472-66.523046 20.46863-92.108833 5.117157-5.117157 20.46863-30.702945 40.937259-25.585787H870.201019c20.46863 0 35.820102 20.46863 40.93726 25.585787 5.117157 20.46863 20.46863 81.874519 20.468629 92.108833 0 10.234315-5.117157 10.234315-5.117157 10.234315h-332.615232s-10.234315 0-5.117158-10.234315z m5.117158 148.397565c-20.46863 0-40.937259-20.46863-40.93726-40.937259s20.46863-40.937259 40.93726-40.937259 40.937259 20.46863 40.937259 40.937259c0 25.585787-20.46863 40.937259-40.937259 40.937259z m332.615232 0c-20.46863 0-40.937259-20.46863-40.937259-40.937259s20.46863-40.937259 40.937259-40.937259 40.937259 20.46863 40.937259 40.937259c0 25.585787-20.46863 40.937259-40.937259 40.937259z" fill="#e9960d" p-id="22588"></path></svg>