<svg width="78" height="78" viewBox="0 0 78 78" fill="none" xmlns="http://www.w3.org/2000/svg">
  <mask id="mask0_95_4635" style="mask-type:alpha" maskUnits="userSpaceOnUse" x="0" y="0" width="78" height="78">
    <rect width="78" height="78" fill="#D9D9D9"/>
  </mask>
  <g mask="url(#mask0_95_4635)">
    <mask id="mask1_95_4635" style="mask-type:alpha" maskUnits="userSpaceOnUse" x="39" y="29" width="39" height="40">
      <rect x="39" y="29.25" width="39" height="39" fill="#D9D9D9"/>
    </mask>
    <g mask="url(#mask1_95_4635)">
      <path d="M48.7791 60.4556V61.0932C48.7791 61.8188 48.5252 62.4357 48.0172 62.9436C47.5092 63.4516 46.8924 63.7056 46.1668 63.7056C45.4444 63.7056 44.8267 63.4492 44.3139 62.9363C43.8011 62.4235 43.5447 61.8059 43.5447 61.0835V49.3287C43.5447 49.1132 43.5598 48.901 43.5902 48.6919C43.6205 48.4829 43.6692 48.2842 43.7363 48.0958L46.7541 39.5301C47.0096 38.7895 47.4557 38.1901 48.0925 37.732C48.7292 37.274 49.4483 37.0449 50.2496 37.0449H66.7504C67.5517 37.0449 68.2708 37.274 68.9075 37.732C69.5443 38.1901 69.9904 38.7895 70.2459 39.5301L73.2637 48.0958C73.3308 48.2842 73.3795 48.4829 73.4098 48.6919C73.4402 48.901 73.4553 49.1132 73.4553 49.3287V61.0932C73.4553 61.8188 73.2013 62.4357 72.6934 62.9436C72.1854 63.4516 71.5686 63.7056 70.8429 63.7056C70.1205 63.7056 69.5029 63.4492 68.9901 62.9363C68.4773 62.4235 68.2209 61.8059 68.2209 61.0835V60.4556H48.7791ZM48.561 45.5002H68.439L66.7813 40.7418H50.2187L48.561 45.5002ZM51.2458 55.1919C51.9229 55.1919 52.4984 54.955 52.9724 54.481C53.4463 54.0071 53.6833 53.4315 53.6833 52.7544C53.6833 52.0774 53.4463 51.5018 52.9724 51.0279C52.4984 50.5539 51.9229 50.3169 51.2458 50.3169C50.5687 50.3169 49.9932 50.5539 49.5192 51.0279C49.0453 51.5018 48.8083 52.0774 48.8083 52.7544C48.8083 53.4315 49.0453 54.0071 49.5192 54.481C49.9932 54.955 50.5687 55.1919 51.2458 55.1919ZM65.7542 55.1919C66.4313 55.1919 67.0068 54.955 67.4808 54.481C67.9547 54.0071 68.1917 53.4315 68.1917 52.7544C68.1917 52.0774 67.9547 51.5018 67.4808 51.0279C67.0068 50.5539 66.4313 50.3169 65.7542 50.3169C65.0771 50.3169 64.5016 50.5539 64.0276 51.0279C63.5537 51.5018 63.3167 52.0774 63.3167 52.7544C63.3167 53.4315 63.5537 54.0071 64.0276 54.481C64.5016 54.955 65.0771 55.1919 65.7542 55.1919ZM47.2416 56.7587H69.7584V48.7502H47.2416V56.7587Z" fill="#18FEFE"/>
    </g>
    <path d="M14.3 44.5246V61.7496C14.3 62.3454 14.0833 62.8736 13.65 63.334C13.2167 63.7944 12.675 64.0246 12.025 64.0246C11.4292 64.0246 10.901 63.7944 10.4406 63.334C9.98021 62.8736 9.75 62.3454 9.75 61.7496V16.2496C9.75 15.6538 9.98021 15.1257 10.4406 14.6652C10.901 14.2048 11.4292 13.9746 12.025 13.9746H28.275C32.4458 13.9746 36.0344 15.4777 39.0406 18.484C42.0469 21.4902 43.55 25.0788 43.55 29.2496C43.55 33.4204 42.0469 37.009 39.0406 40.0152C36.0344 43.0215 32.4458 44.5246 28.275 44.5246H14.3ZM14.3 39.9746H28.275C31.2 39.9746 33.7188 38.9184 35.8313 36.8059C37.9438 34.6934 39 32.1746 39 29.2496C39 26.3246 37.9438 23.8059 35.8313 21.6934C33.7188 19.5809 31.2 18.5246 28.275 18.5246H14.3V39.9746Z" fill="#18FEFE"/>
  </g>
</svg>
