<?xml version="1.0" standalone="no"?><!DOCTYPE svg PUBLIC "-//W3C//DTD SVG 1.1//EN" "http://www.w3.org/Graphics/SVG/1.1/DTD/svg11.dtd"><svg t="1717395367318" class="icon" viewBox="0 0 1024 1024" version="1.1" xmlns="http://www.w3.org/2000/svg" p-id="4502" xmlns:xlink="http://www.w3.org/1999/xlink" width="200" height="200"><path d="M734.3 288.7c-7.4 0-13.5 6-13.5 13.5s6 13.5 13.5 13.5h51v33.1c0 7.4 6 13.5 13.5 13.5s13.5-6 13.5-13.5v-33.1h51c7.4 0 13.5-6 13.5-13.5s-6-13.5-13.5-13.5h-51v-32.1h51c7.4 0 13.5-6 13.5-13.5s-6-13.5-13.5-13.5h-47.4l47.4-47.5c5.3-5.3 5.3-13.8 0-19.1-5.3-5.3-13.8-5.3-19.1 0l-45.5 45.5-45.5-45.5c-5.3-5.3-13.8-5.3-19.1 0-5.3 5.3-5.3 13.8 0 19.1l47.4 47.5h-47.4c-7.4 0-13.5 6-13.5 13.5s6 13.5 13.5 13.5h51v32.1h-50.8zM748.7 521.2c-15.5 0-30.8 15.4-30.8 31.1 0 15.6 15.2 30.9 30.8 30.9 23.6 0 38.2-16.1 38.2-30.9 0-15-14.6-31.1-38.2-31.1zM593.3 521.2c-15.6 0-31 15.4-31 31.1 0 15.6 15.3 30.9 31 30.9 23.5 0 38-16.1 38-30.9 0-15-14.5-31.1-38-31.1z" fill="#71AEFF" p-id="4503"></path><path d="M926.9 615.8c0-112.2-101.2-208.2-230.9-219.4 0-0.8-0.1-1.6-0.3-2.4-25.8-120.2-154.9-210.9-300.3-210.9-164.4 0-298.2 114.9-298.2 256 0 75.2 38.1 143.1 110.3 196.7l-24.7 74.1c-2 6-0.2 12.5 4.6 16.7 4.6 4 11.5 4.9 17.2 2.1l94-47.1 11.1 2.3c29.2 6 54.5 11.2 85.7 11.2 9.2 0 18.5-0.4 27.7-1.2 2.8-0.3 5.4-1.2 7.7-2.9 36.8 87.1 132.9 145.4 240.4 145.4 27.5 0 54.8-6.2 82.6-13.2l72.2 39.5c2.3 1.3 4.9 1.9 7.5 1.9 3.6 0 7.1-1.2 9.8-3.5 4.9-4 6.9-10.5 5.1-16.6l-18.1-60.3c62.3-49.5 96.6-109.4 96.6-168.4z m-124 150.3c-5.2 3.9-7.4 10.7-5.5 16.9l10.3 34.2-44.2-24.2c-2.3-1.3-4.9-1.9-7.5-1.9-1.4 0-2.7 0.2-3.8 0.5-26.7 6.7-54.2 13.7-80.9 13.7-124 0-224.9-85-224.9-189.6s100.9-189.5 224.9-189.5c121.7 0 224.4 86.8 224.4 189.5 0 52-32.9 105.4-92.8 150.4zM240.6 634.7c2.2-6.6-0.2-13.7-5.9-17.7-70.6-49.2-106.4-109.1-106.4-178 0-124 119.8-224.8 267.1-224.8 128.5 0 243.2 77.6 268.6 181.1-137.5 3.4-248.8 101.7-248.8 220.5 0 15.2 2.1 31.1 6.1 47.1h-0.9c-8.4 0.7-16.9 1.1-25.1 1.1-28.4 0-52.2-4.9-79.8-10.6l-16.2-3.3c-3.4-0.8-7-0.3-10 1.3L224 684.1l16.6-49.4z" fill="#71AEFF" p-id="4504"></path><path d="M341.5 354.2c0-22.7-15.3-37.9-38-37.9-21.8 0-45.3 14.5-45.3 37.9 0 23.5 23.5 38 45.3 38 22.8 0 38-15.3 38-38zM501.4 392.2c22.8 0 38.1-15.3 38.1-38s-15.3-37.9-38.1-37.9c-21.7 0-45.2 14.5-45.2 37.9 0 23.5 23.5 38 45.2 38z" fill="#71AEFF" p-id="4505"></path></svg>